<svg width="248" height="160" viewBox="0 0 248 160" fill="none" xmlns="http://www.w3.org/2000/svg">
<path fill-rule="evenodd" clip-rule="evenodd" d="M186.139 69.0015H178.105C177.992 69.0015 177.881 69.0236 177.776 69.0665C177.672 69.1093 177.577 69.1722 177.497 69.2513C177.418 69.3305 177.354 69.4245 177.311 69.528C177.268 69.6314 177.246 69.7423 177.246 69.8543V75.4135H168.287V69.8543C168.287 69.7423 168.265 69.6314 168.222 69.528C168.179 69.4245 168.116 69.3305 168.036 69.2513C167.956 69.1722 167.861 69.1093 167.757 69.0665C167.652 69.0236 167.541 69.0015 167.428 69.0015H159.394C158.92 69.0015 158.533 69.3834 158.533 69.8543V90.1465C158.533 90.6166 158.919 91 159.394 91H167.428C167.902 91 168.287 90.6174 168.287 90.1465V81.4305H177.246V90.1465C177.246 90.6166 177.63 91 178.105 91H186.139C186.613 91 187 90.6174 187 90.1465V69.8535C187 69.3826 186.614 69.0015 186.139 69.0015ZM105.623 90.9992C105.736 90.9993 105.848 90.9774 105.952 90.9346C106.057 90.8918 106.152 90.8291 106.231 90.75C106.311 90.6709 106.375 90.5769 106.418 90.4735C106.461 90.3701 106.483 90.2592 106.483 90.1473V69.8535C106.483 69.3826 106.098 69.0008 105.623 69.0008H97.5896C97.4767 69.0008 97.3648 69.0228 97.2605 69.0657C97.1562 69.1086 97.0614 69.1714 96.9816 69.2506C96.9017 69.3298 96.8384 69.4238 96.7953 69.5272C96.7521 69.6307 96.73 69.7415 96.7301 69.8535V90.1473C96.7301 90.3732 96.8206 90.5899 96.9818 90.7497C97.143 90.9095 97.3617 90.9992 97.5896 90.9992H105.623ZM94.6758 90.9992C94.9038 90.9992 95.1224 90.9095 95.2836 90.7497C95.4448 90.5899 95.5353 90.3732 95.5353 90.1473V85.4384C95.5353 85.2125 95.4448 84.9958 95.2836 84.836C95.1224 84.6763 94.9038 84.5865 94.6758 84.5865H91.6182C91.3902 84.5865 91.1716 84.6763 91.0104 84.836C90.8492 84.9958 90.7587 85.2125 90.7587 85.4384V90.1473C90.7587 90.3732 90.8492 90.5899 91.0104 90.7497C91.1716 90.9095 91.3902 90.9992 91.6182 90.9992H94.6758ZM147.687 84.5873H138.629V75.4135H147.687V84.5873ZM144.928 90.9992L157.44 84.2705V73.3116C157.44 70.9579 155.514 69.0008 153.139 69.0008H143.825L132.885 74.8992C132.93 74.7947 132.957 74.6808 132.957 74.56V69.8527C132.957 69.7406 132.935 69.6296 132.892 69.5261C132.849 69.4225 132.785 69.3285 132.705 69.2492C132.625 69.17 132.53 69.1072 132.426 69.0645C132.321 69.0217 132.209 68.9998 132.096 69H108.537C108.424 69 108.312 69.0221 108.208 69.0649C108.104 69.1078 108.009 69.1706 107.929 69.2498C107.849 69.329 107.786 69.423 107.743 69.5265C107.699 69.6299 107.677 69.7408 107.677 69.8527V74.56C107.677 74.672 107.699 74.7828 107.743 74.8863C107.786 74.9897 107.849 75.0837 107.929 75.1629C108.009 75.2421 108.104 75.3049 108.208 75.3478C108.312 75.3907 108.424 75.4127 108.537 75.4127H114.744V90.1473C114.744 90.3732 114.834 90.5899 114.995 90.7497C115.157 90.9095 115.375 90.9992 115.603 90.9992H123.637C123.865 90.9992 124.084 90.9095 124.245 90.7497C124.406 90.5899 124.497 90.3732 124.497 90.1473V75.4135H131.931L128.876 77.0608V86.7868C128.876 89.1405 130.8 90.9992 133.174 90.9992H144.928ZM70.7534 75.4135V84.5873H88.7044C88.8173 84.5872 88.9292 84.6091 89.0335 84.6519C89.1379 84.6947 89.2328 84.7574 89.3127 84.8365C89.3926 84.9156 89.4559 85.0096 89.4992 85.113C89.5424 85.2164 89.5647 85.3273 89.5647 85.4392V90.1481C89.5647 90.26 89.5424 90.3709 89.4992 90.4743C89.4559 90.5777 89.3926 90.6716 89.3127 90.7507C89.2328 90.8299 89.1379 90.8926 89.0335 90.9354C88.9292 90.9781 88.8173 91.0001 88.7044 91H65.2992C62.9246 91 61 89.1412 61 86.7876V75.7783L71.6692 69.0015H85.2631C87.6378 69.0015 89.5623 70.9587 89.5623 73.3123L89.5631 78.6059C89.5631 79.076 89.1779 79.4586 88.7028 79.4586H80.6701C80.4419 79.4586 80.2231 79.3688 80.0617 79.2089C79.9004 79.049 79.8097 78.8321 79.8097 78.6059V75.4027L70.7534 75.4135Z" fill="white"/>
</svg>
