<svg width="126" height="22" viewBox="0 0 126 22" fill="none" xmlns="http://www.w3.org/2000/svg">
<path fill-rule="evenodd" clip-rule="evenodd" d="M125.139 0.00154953H117.105C116.992 0.00154948 116.881 0.023608 116.776 0.06647C116.672 0.109332 116.577 0.172155 116.497 0.251346C116.418 0.330537 116.354 0.424548 116.311 0.527998C116.268 0.631449 116.246 0.742312 116.246 0.854255V6.4135H107.287V0.854255C107.287 0.742312 107.265 0.631449 107.222 0.527998C107.179 0.424548 107.116 0.330537 107.036 0.251346C106.956 0.172155 106.861 0.109332 106.757 0.06647C106.652 0.023608 106.541 0.00154948 106.428 0.00154953H98.3941C97.9198 0.00154953 97.533 0.383369 97.533 0.854255V21.1465C97.533 21.6166 97.919 22 98.3941 22H106.428C106.902 22 107.287 21.6174 107.287 21.1465V12.4305H116.246V21.1465C116.246 21.6166 116.63 22 117.105 22H125.139C125.613 22 126 21.6174 126 21.1465V0.853481C126 0.382595 125.614 0.00154953 125.139 0.00154953ZM44.6231 21.9992C44.7361 21.9993 44.8479 21.9774 44.9523 21.9346C45.0567 21.8918 45.1515 21.8291 45.2314 21.75C45.3113 21.6709 45.3747 21.5769 45.418 21.4735C45.4612 21.3701 45.4835 21.2592 45.4835 21.1473V0.853481C45.4835 0.382595 45.0982 0.000775468 44.6231 0.000775468H36.5896C36.4767 0.000775422 36.3648 0.0228339 36.2605 0.065696C36.1562 0.108558 36.0614 0.171381 35.9816 0.250572C35.9017 0.329763 35.8384 0.423773 35.7953 0.527224C35.7521 0.630675 35.73 0.741538 35.7301 0.853481V21.1473C35.7301 21.3732 35.8206 21.5899 35.9818 21.7497C36.143 21.9095 36.3617 21.9992 36.5896 21.9992H44.6231ZM33.6758 21.9992C33.9038 21.9992 34.1224 21.9095 34.2836 21.7497C34.4448 21.5899 34.5353 21.3732 34.5353 21.1473V16.4384C34.5353 16.2125 34.4448 15.9958 34.2836 15.836C34.1224 15.6763 33.9038 15.5865 33.6758 15.5865H30.6182C30.3902 15.5865 30.1716 15.6763 30.0104 15.836C29.8492 15.9958 29.7587 16.2125 29.7587 16.4384V21.1473C29.7587 21.3732 29.8492 21.5899 30.0104 21.7497C30.1716 21.9095 30.3902 21.9992 30.6182 21.9992H33.6758ZM86.6872 15.5873H77.6293V6.4135H86.6872V15.5873ZM83.9281 21.9992L96.4398 15.2705V4.31155C96.4398 1.95789 94.5137 0.000775468 92.139 0.000775468H82.8248L71.8853 5.89925C71.9298 5.79469 71.9571 5.68084 71.9571 5.56002V0.852707C71.9572 0.740634 71.935 0.629641 71.8918 0.52609C71.8485 0.422538 71.7851 0.32846 71.7051 0.249248C71.6251 0.170037 71.5302 0.10725 71.4256 0.0644787C71.3211 0.0217079 71.2091 -0.000202407 71.096 1.40898e-06H47.537C47.424 1.36272e-06 47.3122 0.0220598 47.2079 0.0649219C47.1035 0.107784 47.0087 0.170607 46.9289 0.249798C46.8491 0.328989 46.7858 0.422999 46.7426 0.52645C46.6995 0.629901 46.6773 0.740764 46.6774 0.852707V5.56002C46.6773 5.67196 46.6995 5.78283 46.7426 5.88628C46.7858 5.98973 46.8491 6.08374 46.9289 6.16293C47.0087 6.24212 47.1035 6.30494 47.2079 6.3478C47.3122 6.39067 47.424 6.41273 47.537 6.41273H53.7436V21.1473C53.7436 21.3732 53.8342 21.5899 53.9953 21.7497C54.1565 21.9095 54.3752 21.9992 54.6031 21.9992H62.6374C62.8654 21.9992 63.084 21.9095 63.2452 21.7497C63.4064 21.5899 63.497 21.3732 63.497 21.1473V6.4135H70.9312L67.8759 8.06083V17.7868C67.8759 20.1405 69.7997 21.9992 72.1744 21.9992H83.9281ZM9.75338 6.4135V15.5873H27.7044C27.8173 15.5872 27.9292 15.6091 28.0335 15.6519C28.1379 15.6947 28.2328 15.7574 28.3127 15.8365C28.3926 15.9156 28.4559 16.0096 28.4992 16.113C28.5424 16.2164 28.5647 16.3273 28.5647 16.4392V21.1481C28.5647 21.26 28.5424 21.3709 28.4992 21.4743C28.4559 21.5777 28.3926 21.6716 28.3127 21.7507C28.2328 21.8299 28.1379 21.8926 28.0335 21.9354C27.9292 21.9781 27.8173 22.0001 27.7044 22H4.29924C1.92458 22 0 20.1412 0 17.7876V6.77829L10.6692 0.00154953H24.2631C26.6378 0.00154953 28.5623 1.95867 28.5623 4.31232L28.5631 9.60593C28.5631 10.076 28.1779 10.4586 27.7028 10.4586H19.6701C19.4419 10.4586 19.2231 10.3688 19.0617 10.2089C18.9004 10.049 18.8097 9.83208 18.8097 9.60593V6.40266L9.75338 6.4135Z" fill="white"/>
</svg>
