<svg width="10" height="18" viewBox="0 0 10 18" fill="none" xmlns="http://www.w3.org/2000/svg">
<path d="M9.03104 9.53068L1.53104 17.0307C1.46136 17.1004 1.37863 17.1556 1.28759 17.1933C1.19654 17.2311 1.09896 17.2505 1.00042 17.2505C0.901871 17.2505 0.804289 17.2311 0.713245 17.1933C0.6222 17.1556 0.539474 17.1004 0.469792 17.0307C0.400109 16.961 0.344834 16.8783 0.307122 16.7872C0.26941 16.6962 0.25 16.5986 0.25 16.5001C0.25 16.4015 0.26941 16.3039 0.307122 16.2129C0.344834 16.1218 0.400109 16.0391 0.469792 15.9694L7.4401 9.00005L0.469792 2.03068C0.329061 1.88995 0.25 1.69907 0.25 1.50005C0.25 1.30103 0.329061 1.11016 0.469792 0.969426C0.610522 0.828695 0.801394 0.749634 1.00042 0.749634C1.19944 0.749634 1.39031 0.828695 1.53104 0.969426L9.03104 8.46943C9.10077 8.53908 9.15609 8.6218 9.19384 8.71285C9.23158 8.80389 9.25101 8.90149 9.25101 9.00005C9.25101 9.09861 9.23158 9.19621 9.19384 9.28726C9.15609 9.3783 9.10077 9.46102 9.03104 9.53068Z" fill="white"/>
</svg>
