<svg width="128" height="41" viewBox="0 0 128 41" fill="none" xmlns="http://www.w3.org/2000/svg">
<path d="M27.9424 0.832277C28.8454 0.832277 29.7527 0.832277 30.6595 0.825953C30.6495 4.10213 30.692 7.37895 30.6394 10.6551C30.6163 12.7697 29.7327 15.0234 27.8134 16.0724C25.6442 17.1879 22.894 17.1816 20.7674 15.9694C18.957 14.8994 18.0772 12.6995 18.1261 10.6482C18.1361 7.37515 18.1292 4.10213 18.133 0.829115H20.7699C20.7768 3.66265 20.7636 6.49303 20.773 9.32657C20.8194 10.6286 20.8225 12.0457 21.5977 13.1554C22.6397 14.6041 24.8258 14.7407 26.2942 13.925C27.623 13.1156 27.9067 11.4279 27.933 9.98611C27.9555 6.93567 27.9355 3.88271 27.9424 0.832277ZM39.7137 0.892349C41.9981 0.206887 44.5473 0.62297 46.5819 1.85162C46.5694 2.81025 46.5694 3.76573 46.5694 4.72183C44.8617 3.43627 42.5898 2.49092 40.4695 3.23961C39.5528 3.51658 38.9529 4.63077 39.3943 5.52744C39.7569 6.38617 40.7432 6.63594 41.5234 6.95591C43.2048 7.63189 45.1435 7.99485 46.3903 9.42964C47.9927 11.3842 47.5869 14.864 45.2393 16.0528C42.598 17.4345 39.2973 16.995 36.7649 15.5564C36.7618 14.5706 36.7618 13.5886 36.7518 12.6028C38.6579 14.085 41.3024 14.9639 43.6369 14.0616C44.9099 13.5955 45.0715 11.5954 43.9174 10.9049C42.1265 9.80968 39.9272 9.58646 38.2096 8.34454C36.6998 7.24805 36.2546 5.07468 36.8814 3.36292C37.3492 2.121 38.4807 1.25848 39.7137 0.892349ZM64.2282 0.592618C67.822 3.92255 71.3174 7.36567 74.8454 10.7683V0.829115H77.483V16.9052C73.8855 13.4552 70.3875 9.90264 66.77 6.47153V16.5543C65.9164 16.5606 65.0654 16.5606 64.2151 16.5638C64.2194 11.2413 64.1931 5.92013 64.2282 0.592618ZM84.4119 0.825953C87.5943 0.825953 90.7729 0.842394 93.9515 0.815836C93.9709 1.62524 93.9709 2.43401 93.9709 3.24341C91.6896 3.24341 89.4109 3.23961 87.129 3.24341V6.98247C89.1635 6.98942 91.1949 6.98247 93.2294 6.98942V9.39992C91.1947 9.40287 89.1612 9.40287 87.129 9.39992C87.129 10.9808 87.129 12.5667 87.1359 14.1482C89.4109 14.1381 91.6896 14.1482 93.9615 14.1412C93.9646 14.974 93.9677 15.8094 93.9677 16.6422H84.4056C84.4119 11.3709 84.4025 6.10035 84.4119 0.825953ZM101.7 1.44502C104.173 0.000110328 107.332 0.442752 109.759 1.7751C109.805 2.75397 109.805 3.73537 109.802 4.71488C108.041 3.38316 105.669 2.43085 103.507 3.30348C102.281 3.74612 102.138 5.61407 103.253 6.2597C105.069 7.31192 107.289 7.52439 108.987 8.8169C111.269 10.535 111.101 14.6939 108.492 16.0256C105.851 17.4244 102.518 17.0115 99.9918 15.533C99.9918 14.5605 99.9918 13.5886 99.9755 12.616C101.815 13.944 104.157 14.8469 106.425 14.2279C107.263 14.0148 108.031 13.2553 107.912 12.3233C107.929 11.6106 107.434 10.9846 106.814 10.6918C105.033 9.7591 102.932 9.49604 101.317 8.23451C99.2103 6.58599 99.3493 2.80709 101.7 1.44502ZM117.527 1.49877C119.98 0.000110328 123.192 0.402914 125.615 1.77131C125.625 2.74069 125.625 3.70629 125.632 4.67504C123.888 3.34332 121.507 2.44096 119.374 3.31992C118.184 3.78596 118.048 5.60079 119.136 6.2597C120.996 7.35239 123.311 7.52439 125.012 8.9206C126.476 10.086 126.769 12.2467 126.202 13.9515C125.671 15.4692 124.157 16.3545 122.67 16.6782C120.388 17.1544 117.952 16.7282 115.924 15.5767C115.891 14.5877 115.891 13.5987 115.888 12.6097C117.807 14.0483 120.422 14.9703 122.753 14.0641C124.022 13.5981 124.217 11.6334 123.073 10.9207C121.233 9.75846 118.911 9.59279 117.187 8.21364C115.153 6.56638 115.249 2.88487 117.527 1.49877ZM1.23242 0.829115C3.9971 0.99226 6.86823 0.418723 9.54336 1.29895C12.5141 2.26074 12.9361 6.95275 10.2259 8.47733C12.6957 9.50995 13.2624 13.046 11.5679 15.0038C10.5259 16.2558 8.82448 16.5884 7.28465 16.6352C5.26641 16.6687 3.25192 16.6352 1.23367 16.6453V0.829115M3.87499 3.24657C3.87165 4.63183 3.87165 6.01688 3.87499 7.40171C5.29271 7.33215 6.76365 7.60153 8.14818 7.19873C9.82014 6.70929 9.83329 3.92887 8.17135 3.42299C6.76991 3.06319 5.30273 3.30981 3.87499 3.24657ZM3.87499 9.73633C3.86873 11.2344 3.87186 12.733 3.87499 14.226C5.50311 14.1096 7.25146 14.5491 8.79129 13.8599C10.318 13.1074 10.1796 10.5432 8.58026 9.96714C7.0636 9.48972 5.43799 9.84067 3.87499 9.73633ZM54.0737 0.829115H56.7138V16.6453H54.0737V0.829115ZM43.2649 25.3856C45.7277 23.8104 49.0122 24.2474 51.4456 25.6689C51.4324 26.6212 51.4324 27.5735 51.4356 28.5252C49.6553 27.2106 47.2087 26.195 45.0652 27.2036C44.0069 27.7133 43.8685 29.3011 44.821 29.9903C46.7735 31.2424 49.3685 31.3025 51.0529 33.0142C52.1801 34.0892 52.368 35.8041 52.0787 37.2693C51.7424 38.7344 50.4762 39.8265 49.081 40.2413C46.6389 41.0001 43.898 40.591 41.7019 39.3023C41.7088 38.3266 41.7119 37.3515 41.7019 36.3758C43.5586 37.784 46.0809 38.7098 48.3628 37.8839C49.7404 37.5108 50.0147 35.3735 48.7679 34.6741C46.925 33.5119 44.5805 33.3658 42.8854 31.9272C40.9636 30.2869 41.0888 26.7572 43.2649 25.3856ZM11.7031 24.7197H14.3375C14.3438 29.9341 14.3449 35.1505 14.3407 40.369H11.7031V24.7197ZM21.8388 24.3536C25.3474 27.736 28.8479 31.1324 32.3872 34.4825C32.4003 31.1994 32.3903 27.9194 32.3934 24.6401C33.2701 24.6363 34.1495 24.635 35.0316 24.6363C35.0379 29.9739 35.0247 35.3077 35.0379 40.6454C31.4604 37.2212 27.9524 33.7199 24.4018 30.2654C24.3849 33.632 24.4018 37.0012 24.395 40.3709H21.8394C21.8361 35.0301 21.8359 29.691 21.8388 24.3536ZM58.9368 24.7197H61.575V40.369H58.9368V24.7197ZM69.162 24.7197C71.2857 24.7197 73.4114 24.7174 75.5393 24.7128C77.9558 24.6831 80.4518 25.932 81.6328 28.1129C82.9021 30.4033 82.9842 33.2501 82.1964 35.7175C81.3523 38.3101 78.8393 40.1439 76.1623 40.3191C73.831 40.4392 71.4965 40.3362 69.162 40.369V24.7197ZM71.8791 27.1334V37.9516C73.7684 37.882 75.8029 38.245 77.56 37.3527C79.2508 36.4732 80.0235 34.4756 79.974 32.6373C80.0429 30.7795 79.3935 28.6953 77.699 27.743C75.9212 26.7407 73.8147 27.2605 71.8791 27.1334ZM88.1184 24.7197C91.2769 24.7168 94.437 24.7168 97.5984 24.7197C97.5984 25.5254 97.5947 26.331 97.5947 27.1372C95.3136 27.1305 93.0341 27.1305 90.756 27.1372V30.7928C92.7873 30.7966 94.8208 30.7979 96.8564 30.7966V33.1274C94.8219 33.1274 92.7861 33.1236 90.756 33.1274V37.9484C93.0347 37.9554 95.3166 37.9484 97.5984 37.9522V40.3659H88.1184V24.7197ZM105.35 24.7166C107.49 24.7362 109.63 24.6964 111.767 24.7299C113.583 24.776 115.503 25.832 116.025 27.6829C116.493 29.2916 116.381 31.1994 115.359 32.5741C114.733 33.3962 113.717 33.7066 112.768 33.9697C114.62 36.0834 116.459 38.2123 118.284 40.3564C117.24 40.3766 116.2 40.3766 115.165 40.3564C113.397 38.2355 111.595 36.1443 109.819 34.0367C109.233 34.0405 108.649 34.0405 108.066 34.0405C108.06 36.1481 108.063 38.2557 108.063 40.364C107.156 40.3669 106.249 40.3669 105.343 40.364V24.7115M108.063 27.0512C108.057 28.603 108.06 30.1548 108.063 31.7059C109.471 31.6262 110.943 31.9291 112.307 31.4865C113.992 30.8035 114.028 28.0718 112.369 27.344C111.005 26.8172 109.498 27.1271 108.07 27.0537" fill="white"/>
</svg>
