<svg width="16" height="18" viewBox="0 0 16 18" fill="none" xmlns="http://www.w3.org/2000/svg">
<path d="M2.16667 17.3334C1.70833 17.3334 1.31597 17.1702 0.989583 16.8438C0.663194 16.5174 0.5 16.125 0.5 15.6667V4.00002C0.5 3.54169 0.663194 3.14933 0.989583 2.82294C1.31597 2.49655 1.70833 2.33335 2.16667 2.33335H3V1.50002C3 1.26391 3.07986 1.06599 3.23958 0.90627C3.39931 0.746548 3.59722 0.666687 3.83333 0.666687C4.06944 0.666687 4.26736 0.746548 4.42708 0.90627C4.58681 1.06599 4.66667 1.26391 4.66667 1.50002V2.33335H11.3333V1.50002C11.3333 1.26391 11.4132 1.06599 11.5729 0.90627C11.7326 0.746548 11.9306 0.666687 12.1667 0.666687C12.4028 0.666687 12.6007 0.746548 12.7604 0.90627C12.9201 1.06599 13 1.26391 13 1.50002V2.33335H13.8333C14.2917 2.33335 14.684 2.49655 15.0104 2.82294C15.3368 3.14933 15.5 3.54169 15.5 4.00002V15.6667C15.5 16.125 15.3368 16.5174 15.0104 16.8438C14.684 17.1702 14.2917 17.3334 13.8333 17.3334H2.16667ZM2.16667 15.6667H13.8333V7.33335H2.16667V15.6667Z" fill="#3A8DFF"/>
</svg>
