<svg width="96" height="96" viewBox="0 0 96 96" fill="none" xmlns="http://www.w3.org/2000/svg">
<path opacity="0.2" d="M69.001 45V68.1187C69.0006 68.9133 68.685 69.6753 68.1235 70.2375L55.2422 83.1187C54.8481 83.512 54.3522 83.7879 53.8102 83.9154C53.2682 84.0429 52.7014 84.017 52.1733 83.8407C51.6451 83.6644 51.1765 83.3446 50.8197 82.9171C50.463 82.4896 50.2323 81.9712 50.1535 81.42L48.001 66L69.001 45ZM51.001 27H27.8822C27.0876 27.0004 26.3256 27.316 25.7635 27.8775L12.8822 40.7588C12.4889 41.1529 12.2131 41.6487 12.0856 42.1907C11.9581 42.7327 11.9839 43.2995 12.1602 43.8277C12.3365 44.3558 12.6564 44.8245 13.0839 45.1812C13.5114 45.5379 14.0298 45.7686 14.581 45.8475L30.001 48L51.001 27ZM15.001 81C29.1197 81 34.0097 73.6163 35.461 70.4325L25.5685 60.54C22.3847 61.9912 15.001 66.8812 15.001 81Z" fill="white"/>
<path d="M83.944 17.67C83.8551 16.2073 83.2339 14.8276 82.1977 13.7913C81.1614 12.7551 79.7817 12.1339 78.319 12.045C73.6015 11.7638 61.5452 12.195 51.5402 22.1963L49.759 24H27.8852C27.0943 23.9956 26.3103 24.1484 25.579 24.4497C24.8476 24.751 24.1835 25.1947 23.6252 25.755L10.7627 38.625C9.97389 39.4133 9.42037 40.4058 9.16427 41.4912C8.90817 42.5766 8.95962 43.7119 9.31286 44.7696C9.66609 45.8274 10.3071 46.7658 11.164 47.4795C12.0209 48.1932 13.0598 48.6539 14.164 48.81L28.5902 50.8238L45.169 67.4025L47.1827 81.8363C47.3376 82.9406 47.7982 83.9795 48.5126 84.8357C49.2269 85.6918 50.1666 86.3311 51.2252 86.6813C51.8418 86.8873 52.4876 86.9924 53.1377 86.9925C53.9249 86.994 54.7046 86.8397 55.4318 86.5385C56.1591 86.2373 56.8196 85.7952 57.3752 85.2375L70.2452 72.375C70.8055 71.8168 71.2492 71.1526 71.5505 70.4213C71.8518 69.6899 72.0047 68.906 72.0002 68.115V46.2413L73.789 44.4525C83.794 34.4475 84.2252 22.3913 83.944 17.67ZM27.8852 30H43.759L28.9352 44.82L15.0002 42.8775L27.8852 30ZM55.789 26.4563C58.6717 23.5558 62.1401 21.3038 65.9626 19.8507C69.7851 18.3977 73.8737 17.7769 77.9552 18.03C78.2181 22.1137 77.6038 26.2064 76.1537 30.0329C74.7035 33.8595 72.4511 37.3313 69.5477 40.215L48.0002 61.755L34.2452 48L55.789 26.4563ZM66.0002 68.115L53.1265 81L51.1802 67.0613L66.0002 52.2413V68.115ZM38.1902 71.6775C36.5027 75.375 30.859 84 15.0002 84C14.2046 84 13.4415 83.684 12.8789 83.1214C12.3163 82.5588 12.0002 81.7957 12.0002 81C12.0002 65.1413 20.6252 59.4975 24.3227 57.8063C24.6812 57.6428 25.0684 57.5515 25.4622 57.5377C25.856 57.5238 26.2487 57.5876 26.6178 57.7255C26.9869 57.8634 27.3252 58.0727 27.6135 58.3413C27.9017 58.61 28.1342 58.9328 28.2977 59.2913C28.4612 59.6498 28.5525 60.037 28.5663 60.4308C28.5802 60.8246 28.5164 61.2172 28.3785 61.5863C28.2406 61.9555 28.0313 62.2938 27.7627 62.582C27.494 62.8703 27.1712 63.1028 26.8127 63.2663C24.4015 64.365 19.0802 67.9013 18.1427 77.8575C28.099 76.92 31.6427 71.5988 32.734 69.1875C32.8975 68.829 33.13 68.5062 33.4182 68.2376C33.7065 67.9689 34.0448 67.7597 34.4139 67.6218C34.783 67.4839 35.1757 67.4201 35.5695 67.4339C35.9633 67.4478 36.3505 67.539 36.709 67.7025C37.0675 67.866 37.3903 68.0985 37.6589 68.3868C37.9276 68.675 38.1368 69.0134 38.2747 69.3825C38.4126 69.7516 38.4764 70.1443 38.4626 70.5381C38.4487 70.9318 38.3575 71.319 38.194 71.6775H38.1902Z" fill="white"/>
</svg>
