<svg width="20" height="14" viewBox="0 0 20 14" fill="none" xmlns="http://www.w3.org/2000/svg">
<path d="M18.75 12H18.125V10.125C18.125 9.95924 18.0592 9.80027 17.9419 9.68306C17.8247 9.56585 17.6658 9.5 17.5 9.5H12.5C12.3342 9.5 12.1753 9.56585 12.0581 9.68306C11.9408 9.80027 11.875 9.95924 11.875 10.125V12H3.125V1.375H16.875V7.625C16.875 7.79076 16.9408 7.94973 17.0581 8.06694C17.1753 8.18415 17.3342 8.25 17.5 8.25C17.6658 8.25 17.8247 8.18415 17.9419 8.06694C18.0592 7.94973 18.125 7.79076 18.125 7.625V1.375C18.125 1.04348 17.9933 0.725537 17.7589 0.491116C17.5245 0.256696 17.2065 0.125 16.875 0.125H3.125C2.79348 0.125 2.47554 0.256696 2.24112 0.491116C2.0067 0.725537 1.875 1.04348 1.875 1.375V12H1.25C1.08424 12 0.925268 12.0658 0.808058 12.1831C0.690848 12.3003 0.625 12.4592 0.625 12.625C0.625 12.7908 0.690848 12.9497 0.808058 13.0669C0.925268 13.1842 1.08424 13.25 1.25 13.25H18.75C18.9158 13.25 19.0747 13.1842 19.1919 13.0669C19.3092 12.9497 19.375 12.7908 19.375 12.625C19.375 12.4592 19.3092 12.3003 19.1919 12.1831C19.0747 12.0658 18.9158 12 18.75 12ZM13.125 10.75H16.875V12H13.125V10.75Z" fill="#99C4FF"/>
</svg>
