<svg width="13" height="7" viewBox="0 0 13 7" fill="none" xmlns="http://www.w3.org/2000/svg">
<path d="M12.2076 0.292554C12.3005 0.385427 12.3743 0.495716 12.4246 0.617114C12.475 0.738512 12.5009 0.868639 12.5009 1.00005C12.5009 1.13147 12.475 1.2616 12.4246 1.38299C12.3743 1.50439 12.3005 1.61468 12.2076 1.70755L7.20757 6.70755C7.1147 6.80053 7.00441 6.87429 6.88301 6.92461C6.76161 6.97494 6.63148 7.00084 6.50007 7.00084C6.36865 7.00084 6.23853 6.97494 6.11713 6.92461C5.99573 6.87429 5.88544 6.80053 5.79257 6.70755L0.792567 1.70755C0.604927 1.51991 0.499512 1.26542 0.499512 1.00005C0.499512 0.73469 0.604927 0.480195 0.792567 0.292554C0.980208 0.104913 1.2347 -0.000501633 1.50007 -0.000501633C1.76543 -0.000501633 2.01993 0.104913 2.20757 0.292554L6.50007 4.5863L10.7926 0.292554C10.8854 0.199577 10.9957 0.125819 11.1171 0.0754948C11.2385 0.0251705 11.3687 -0.000732422 11.5001 -0.000732422C11.6315 -0.000732422 11.7616 0.0251705 11.883 0.0754948C12.0044 0.125819 12.1147 0.199577 12.2076 0.292554Z" fill="white"/>
</svg>
