<svg width="113" height="28" viewBox="0 0 113 28" fill="none" xmlns="http://www.w3.org/2000/svg">
<path d="M68.6215 7.9621C66.8332 7.9621 65.4285 8.34778 64.0231 9.11766C64.0231 5.00793 64.0231 1.28387 64.1515 0L55.5913 1.5405V2.31112L56.4854 2.43944C57.6341 2.69606 58.0192 3.33763 58.2723 4.87961C58.5298 7.9621 58.4006 24.4018 58.2723 27.0993C60.5719 27.6133 62.9998 27.999 65.4278 27.999C72.1989 27.999 76.2868 23.7602 76.2868 17.0812C76.2868 11.8159 72.9654 7.9621 68.6215 7.9621ZM65.683 26.5853C65.1718 26.5853 64.5321 26.5853 64.15 26.4578C64.0216 24.6599 63.8947 17.0812 64.0216 10.403C64.7881 10.1456 65.2987 10.0173 65.9383 10.0173C68.7506 10.0173 70.2837 13.3564 70.2837 17.4654C70.283 22.6046 68.3663 26.5853 65.683 26.5853ZM23.3955 0.513253H0.910156V1.66881L2.18795 1.79713C3.84791 2.05375 4.48754 3.081 4.74207 5.52118C5.12644 10.1449 4.99807 18.4942 4.74207 22.4741C4.4868 24.915 3.84864 26.0713 2.18795 26.1982L0.910156 26.4563V27.4835H15.3466V26.4563L13.8135 26.1982C12.1528 26.0706 11.5139 24.915 11.2587 22.4741C11.1303 20.8038 11.0027 18.1063 11.0027 14.7679L14.0688 14.8962C15.9855 14.8962 16.8789 16.4375 17.2626 18.6203H18.4127V9.50408H17.2626C16.8782 11.6876 15.9855 13.2281 14.0688 13.2281L11.0034 13.3572C11.0034 8.99009 11.131 4.88035 11.2594 2.44018H15.7302C19.1807 2.44018 20.969 4.62299 22.2461 8.47684L23.5239 8.09115L23.3955 0.513253Z" fill="white"/>
<path d="M30.6778 7.70561C37.066 7.70561 40.2598 12.0727 40.2598 17.852C40.2598 23.3747 36.6824 27.9999 30.2941 27.9999C23.9066 27.9999 20.7129 23.632 20.7129 17.852C20.7129 12.3293 24.2895 7.70561 30.6778 7.70561ZM30.2941 8.99023C27.4833 8.99023 26.7168 12.8433 26.7168 17.852C26.7168 22.7324 27.9946 26.7138 30.5501 26.7138C33.4864 26.7138 34.2544 22.8607 34.2544 17.852C34.2544 12.9716 32.9781 8.99023 30.2941 8.99023ZM77.9466 17.9811C77.9466 12.715 81.268 7.70561 87.7839 7.70561C93.1481 7.70561 95.7045 11.6878 95.7045 16.9531H83.8229C83.6945 21.7051 85.9941 25.1733 90.594 25.1733C92.6383 25.1733 93.6601 24.6608 94.9387 23.7611L95.4485 24.4027C94.1707 26.2005 91.3606 27.9999 87.7839 27.9999C82.0346 27.9991 77.9466 23.8894 77.9466 17.9811ZM83.8229 15.5409L89.8275 15.4118C89.8275 12.8433 89.4439 8.99023 87.2726 8.99023C85.1014 8.99023 83.9498 12.586 83.8229 15.5409ZM110.91 8.7336C109.377 8.09055 107.333 7.70561 105.033 7.70561C100.307 7.70561 97.3674 10.5307 97.3674 13.8706C97.3674 17.2104 99.5371 18.6226 102.607 19.6506C105.8 20.8054 106.695 21.7051 106.695 23.2464C106.695 24.7876 105.545 26.1998 103.5 26.1998C101.074 26.1998 99.2841 24.7876 97.8794 20.9337L96.9845 21.1919L97.1128 26.8428C98.6459 27.4844 101.456 27.9991 103.884 27.9991C108.867 27.9991 112.061 25.4292 112.061 21.4485C112.061 18.7509 110.655 17.2104 107.334 15.9251C103.756 14.5129 102.479 13.614 102.479 11.9437C102.479 10.2741 103.631 9.1178 105.164 9.1178C107.462 9.1178 108.995 10.5307 110.147 13.9989L111.04 13.7423L110.91 8.7336ZM56.8674 8.2196C54.6962 6.93647 50.8628 7.5773 48.8192 12.2018L48.9461 7.70635L40.3874 9.37591V10.1465L41.2816 10.2748C42.4325 10.4039 42.9423 11.0455 43.0706 12.7158C43.3259 15.7982 43.1983 21.1933 43.0706 23.8901C42.9423 25.4299 42.4325 26.2005 41.2816 26.3296L40.3874 26.4586V27.4859H52.2683V26.4586L50.7352 26.3296C49.4581 26.2005 49.0745 25.4299 48.9461 23.8901C48.6909 21.4492 48.6909 16.5689 48.8192 13.4864C49.4574 12.5867 52.2683 11.8168 54.8231 13.4864L56.8674 8.2196Z" fill="white"/>
</svg>
