<svg width="21" height="18" viewBox="0 0 21 18" fill="none" xmlns="http://www.w3.org/2000/svg">
<path d="M19.5 15.75H18.75V0.75C18.75 0.551088 18.671 0.360322 18.5303 0.21967C18.3897 0.0790178 18.1989 0 18 0H12.75C12.5511 0 12.3603 0.0790178 12.2197 0.21967C12.079 0.360322 12 0.551088 12 0.75V4.5H7.5C7.30109 4.5 7.11032 4.57902 6.96967 4.71967C6.82902 4.86032 6.75 5.05109 6.75 5.25V9H3C2.80109 9 2.61032 9.07902 2.46967 9.21967C2.32902 9.36032 2.25 9.55109 2.25 9.75V15.75H1.5C1.30109 15.75 1.11032 15.829 0.96967 15.9697C0.829018 16.1103 0.75 16.3011 0.75 16.5C0.75 16.6989 0.829018 16.8897 0.96967 17.0303C1.11032 17.171 1.30109 17.25 1.5 17.25H19.5C19.6989 17.25 19.8897 17.171 20.0303 17.0303C20.171 16.8897 20.25 16.6989 20.25 16.5C20.25 16.3011 20.171 16.1103 20.0303 15.9697C19.8897 15.829 19.6989 15.75 19.5 15.75ZM13.5 1.5H17.25V15.75H13.5V1.5ZM8.25 6H12V15.75H8.25V6ZM3.75 10.5H6.75V15.75H3.75V10.5Z" fill="white"/>
</svg>
