<svg width="138" height="27" viewBox="0 0 138 27" fill="none" xmlns="http://www.w3.org/2000/svg">
<g clip-path="url(#clip0_250_384)">
<path d="M69.6996 23.959C69.6996 24.4336 69.6996 24.5415 70.0222 24.8328L71.8289 26.6019V26.6775H63.818V23.2793C63.0116 25.5189 60.8791 27 58.5059 26.9687C54.3876 26.9687 51.3982 23.7324 51.3982 17.7777C51.3982 12.2004 54.6239 8.47872 59.151 8.47872C61.1578 8.35214 63.0254 9.51181 63.8072 11.3698V3.87276C63.8365 3.70294 63.8179 3.52838 63.7533 3.36843C63.6888 3.20848 63.5808 3.0694 63.4415 2.9666L61.721 1.3053V1.22979L69.6996 0.291266V23.959ZM63.818 22.8802V11.6934C63.5334 11.3373 63.1701 11.051 62.7562 10.8564C62.3422 10.6619 61.8887 10.5644 61.4307 10.5715C59.4844 10.5715 57.6027 12.3407 57.6027 17.5943C57.6027 22.5134 59.2264 24.2502 61.248 24.2502C61.7549 24.239 62.2519 24.109 62.6984 23.8709C63.145 23.6328 63.5289 23.2933 63.818 22.8802ZM75.0118 26.6775V11.5748C75.0371 11.4091 75.021 11.2397 74.9647 11.0817C74.9085 10.9236 74.8138 10.7818 74.6892 10.6686L72.9147 8.83471V8.7592H80.9259V24.0776C80.9259 24.5523 80.9259 24.6602 81.2485 24.9514L83.0121 26.6127V26.6882L75.0118 26.6775ZM74.7215 3.23593C74.7215 1.44878 76.1658 0 77.9471 0C79.7285 0 81.1731 1.44914 81.1731 3.23629C81.1731 5.02344 79.7288 6.47258 77.9475 6.47258C76.1661 6.47258 74.7215 5.02344 74.7215 3.23629V3.23593ZM102.539 23.9266C102.539 24.4013 102.539 24.5415 102.862 24.8328L104.669 26.6019V26.6775H96.6145V22.8047C95.881 25.2535 93.6466 26.9399 91.0983 26.9687C87.5284 26.9687 85.6144 24.3581 85.6144 19.4174C85.6144 17.0333 85.6144 14.4227 85.6894 11.4885C85.7185 11.3275 85.704 11.1618 85.6473 11.0082C85.5906 10.8547 85.4938 10.7189 85.3668 10.6147L83.5927 8.83471V8.7592H91.539V18.6083C91.539 21.8446 92.0124 24.0021 94.0337 24.0021C94.5699 23.9675 95.0889 23.8003 95.5434 23.5158C95.9979 23.2313 96.3735 22.8385 96.6359 22.3732V11.5856C96.6613 11.4198 96.6451 11.2505 96.5889 11.0924C96.5326 10.9344 96.438 10.7925 96.3134 10.6794L94.5284 8.83471V8.7592H102.539V23.9266ZM129.809 26.6775C129.809 26.0949 129.917 18.673 129.917 16.9686C129.917 13.7323 129.411 11.4993 127.142 11.4993C126.578 11.5176 126.025 11.6679 125.53 11.9378C125.035 12.2077 124.611 12.5897 124.293 13.0527C124.52 14.0613 124.628 15.0933 124.615 16.1271C124.615 18.371 124.54 21.2297 124.508 24.0884C124.479 24.2494 124.493 24.4151 124.55 24.5686C124.606 24.7222 124.703 24.858 124.83 24.9622L126.637 26.6235V26.699H118.551C118.551 26.1596 118.658 18.6946 118.658 16.9902C118.658 13.6999 118.153 11.5208 115.916 11.5208C115.372 11.5415 114.842 11.6988 114.375 11.978C113.909 12.2572 113.522 12.6492 113.249 13.1174V24.1208C113.249 24.5954 113.249 24.7033 113.572 24.9946L115.336 26.6559V26.7314H107.335V11.6287C107.361 11.463 107.345 11.2936 107.288 11.1356C107.232 10.9776 107.137 10.8357 107.013 10.7225L105.238 8.83471V8.7592H113.249V12.5996C113.992 10.0645 116.359 8.36077 118.991 8.46793C121.658 8.46793 123.465 9.95662 124.228 12.783C125.076 10.1763 127.517 8.4273 130.25 8.46793C133.82 8.46793 135.841 11.1109 135.841 16.1056C135.841 18.4896 135.766 21.2081 135.734 24.0668C135.703 24.2319 135.721 24.4024 135.786 24.5575C135.851 24.7126 135.96 24.8457 136.099 24.9406L137.863 26.6019V26.6775H129.809ZM29.1717 24.3257L31.5482 26.6019V26.6775H19.494V26.6019L21.9136 24.3257C22.0406 24.2215 22.1374 24.0857 22.1941 23.9322C22.2508 23.7786 22.2653 23.6129 22.2362 23.4519V8.89944C22.2362 8.28454 22.2362 7.45389 22.3435 6.74191L14.2141 26.9691H14.1177L5.69802 8.36041C5.51499 7.89655 5.46135 7.86418 5.34284 7.55134V19.7522C5.24208 20.5683 5.38037 21.396 5.74115 22.1362L9.12808 26.6023V26.6778H0.138672V26.6023L3.52596 22.1254C3.88383 21.3881 4.02178 20.5647 3.92355 19.7522V6.26761C3.97901 5.60473 3.77933 4.94561 3.36468 4.42293L0.96683 1.3053V1.22979H9.56916L16.7736 16.9905L23.118 1.22979H31.5373V1.3053L29.1717 3.94827C29.0323 4.05107 28.9244 4.19016 28.8598 4.35011C28.7953 4.51006 28.7766 4.68462 28.806 4.85443V23.4523C28.7752 23.6175 28.7933 23.788 28.8583 23.9431C28.9233 24.0982 29.0323 24.2313 29.172 24.3261L29.1717 24.3257ZM38.6022 17.0333V17.1088C38.6022 21.7259 40.9786 23.5814 43.7636 23.5814C46.0889 23.6609 48.2414 22.3527 49.2475 20.248H49.3229C48.3552 24.8112 45.5377 26.9687 41.3226 26.9687C36.7741 26.9687 32.4836 24.2179 32.4836 17.8424C32.4836 11.1433 36.7849 8.46793 41.5375 8.46793C45.3659 8.46793 49.4411 10.2803 49.4411 16.1056V17.0333H38.6022ZM38.6022 16.1056H43.9035V15.167C43.9035 10.4205 42.9249 9.15834 41.4516 9.15834C39.6666 9.15834 38.5808 11.0462 38.5808 16.1056H38.6022Z" fill="white"/>
</g>
<defs>
<clipPath id="clip0_250_384">
<rect width="138" height="27" fill="white"/>
</clipPath>
</defs>
</svg>
