<svg width="20" height="18" viewBox="0 0 20 18" fill="none" xmlns="http://www.w3.org/2000/svg">
<path d="M18.25 0.75H4.75C4.35218 0.75 3.97064 0.908035 3.68934 1.18934C3.40804 1.47064 3.25 1.85218 3.25 2.25V3.75H1.75C1.35218 3.75 0.970644 3.90804 0.68934 4.18934C0.408035 4.47064 0.25 4.85218 0.25 5.25V15.75C0.25 16.1478 0.408035 16.5294 0.68934 16.8107C0.970644 17.092 1.35218 17.25 1.75 17.25H15.25C15.6478 17.25 16.0294 17.092 16.3107 16.8107C16.592 16.5294 16.75 16.1478 16.75 15.75V14.25H18.25C18.6478 14.25 19.0294 14.092 19.3107 13.8107C19.592 13.5294 19.75 13.1478 19.75 12.75V2.25C19.75 1.85218 19.592 1.47064 19.3107 1.18934C19.0294 0.908035 18.6478 0.75 18.25 0.75ZM15.25 5.25V6.75H1.75V5.25H15.25ZM15.25 15.75H1.75V8.25H15.25V15.75ZM18.25 12.75H16.75V5.25C16.75 4.85218 16.592 4.47064 16.3107 4.18934C16.0294 3.90804 15.6478 3.75 15.25 3.75H4.75V2.25H18.25V12.75Z" fill="white"/>
</svg>
