<svg width="18" height="14" viewBox="0 0 18 14" fill="none" xmlns="http://www.w3.org/2000/svg">
<path d="M15.875 0.125H4.625C4.29348 0.125 3.97554 0.256696 3.74112 0.491116C3.5067 0.725537 3.375 1.04348 3.375 1.375V2.625H2.125C1.79348 2.625 1.47554 2.7567 1.24112 2.99112C1.0067 3.22554 0.875 3.54348 0.875 3.875V12.625C0.875 12.9565 1.0067 13.2745 1.24112 13.5089C1.47554 13.7433 1.79348 13.875 2.125 13.875H13.375C13.7065 13.875 14.0245 13.7433 14.2589 13.5089C14.4933 13.2745 14.625 12.9565 14.625 12.625V11.375H15.875C16.2065 11.375 16.5245 11.2433 16.7589 11.0089C16.9933 10.7745 17.125 10.4565 17.125 10.125V1.375C17.125 1.04348 16.9933 0.725537 16.7589 0.491116C16.5245 0.256696 16.2065 0.125 15.875 0.125ZM2.125 3.875H13.375V5.125H2.125V3.875ZM13.375 12.625H2.125V6.375H13.375V12.625ZM15.875 10.125H14.625V3.875C14.625 3.54348 14.4933 3.22554 14.2589 2.99112C14.0245 2.7567 13.7065 2.625 13.375 2.625H4.625V1.375H15.875V10.125Z" fill="#3A8DFF"/>
</svg>
