<svg width="78" height="66" viewBox="0 0 78 66" fill="none" xmlns="http://www.w3.org/2000/svg">
<path d="M78 3V18C78 18.7956 77.6839 19.5587 77.1213 20.1213C76.5587 20.6839 75.7956 21 75 21C74.2044 21 73.4413 20.6839 72.8787 20.1213C72.3161 19.5587 72 18.7956 72 18V6H60C59.2043 6 58.4413 5.68393 57.8787 5.12132C57.3161 4.55871 57 3.79565 57 3C57 2.20435 57.3161 1.44129 57.8787 0.87868C58.4413 0.316071 59.2043 0 60 0H75C75.7956 0 76.5587 0.316071 77.1213 0.87868C77.6839 1.44129 78 2.20435 78 3ZM18 60H6V48C6 47.2043 5.68393 46.4413 5.12132 45.8787C4.55871 45.3161 3.79565 45 3 45C2.20435 45 1.44129 45.3161 0.87868 45.8787C0.31607 46.4413 0 47.2043 0 48V63C0 63.7957 0.31607 64.5587 0.87868 65.1213C1.44129 65.6839 2.20435 66 3 66H18C18.7956 66 19.5587 65.6839 20.1213 65.1213C20.6839 64.5587 21 63.7957 21 63C21 62.2043 20.6839 61.4413 20.1213 60.8787C19.5587 60.3161 18.7956 60 18 60ZM75 45C74.2044 45 73.4413 45.3161 72.8787 45.8787C72.3161 46.4413 72 47.2043 72 48V60H60C59.2043 60 58.4413 60.3161 57.8787 60.8787C57.3161 61.4413 57 62.2043 57 63C57 63.7957 57.3161 64.5587 57.8787 65.1213C58.4413 65.6839 59.2043 66 60 66H75C75.7956 66 76.5587 65.6839 77.1213 65.1213C77.6839 64.5587 78 63.7957 78 63V48C78 47.2043 77.6839 46.4413 77.1213 45.8787C76.5587 45.3161 75.7956 45 75 45ZM3 21C3.79565 21 4.55871 20.6839 5.12132 20.1213C5.68393 19.5587 6 18.7956 6 18V6H18C18.7956 6 19.5587 5.68393 20.1213 5.12132C20.6839 4.55871 21 3.79565 21 3C21 2.20435 20.6839 1.44129 20.1213 0.87868C19.5587 0.316071 18.7956 0 18 0H3C2.20435 0 1.44129 0.316071 0.87868 0.87868C0.31607 1.44129 0 2.20435 0 3V18C0 18.7956 0.31607 19.5587 0.87868 20.1213C1.44129 20.6839 2.20435 21 3 21ZM61.5 47.625L40.5 59.625C40.0466 59.8841 39.5335 60.0205 39.0112 60.0205C38.489 60.0205 37.9759 59.8841 37.5225 59.625L16.5 47.625C16.04 47.3594 15.6587 46.9765 15.3952 46.5153C15.1316 46.0541 14.9952 45.5312 15 45V21C14.9952 20.4688 15.1316 19.9459 15.3952 19.4847C15.6587 19.0235 16.04 18.6406 16.5 18.375L37.5 6.375C37.9534 6.11585 38.4665 5.97954 38.9888 5.97954C39.511 5.97954 40.0241 6.11585 40.4775 6.375L61.4775 18.375C61.9375 18.6406 62.3188 19.0235 62.5823 19.4847C62.8459 19.9459 62.9823 20.4688 62.9775 21V45C62.9845 45.529 62.8516 46.0504 62.5921 46.5114C62.3326 46.9724 61.9558 47.3566 61.5 47.625ZM24.045 21L39 29.5462L53.955 21L39 12.4537L24.045 21ZM21 43.26L36 51.8288V34.74L21 26.1712V43.26ZM57 43.26V26.1712L42 34.74V51.8288L57 43.26Z" fill="white"/>
</svg>
