<svg width="20" height="20" viewBox="0 0 20 20" fill="none" xmlns="http://www.w3.org/2000/svg">
<path opacity="0.2" d="M17.5 4.375V13.125C17.5 13.2908 17.4342 13.4497 17.3169 13.5669C17.1997 13.6842 17.0408 13.75 16.875 13.75H15V6.875C15 6.70924 14.9342 6.55027 14.8169 6.43306C14.6997 6.31585 14.5408 6.25 14.375 6.25H5V4.375C5 4.20924 5.06585 4.05027 5.18306 3.93306C5.30027 3.81585 5.45924 3.75 5.625 3.75H16.875C17.0408 3.75 17.1997 3.81585 17.3169 3.93306C17.4342 4.05027 17.5 4.20924 17.5 4.375Z" fill="#3A8DFF"/>
<path d="M16.875 3.125H5.625C5.29348 3.125 4.97554 3.2567 4.74112 3.49112C4.5067 3.72554 4.375 4.04348 4.375 4.375V5.625H3.125C2.79348 5.625 2.47554 5.7567 2.24112 5.99112C2.0067 6.22554 1.875 6.54348 1.875 6.875V15.625C1.875 15.9565 2.0067 16.2745 2.24112 16.5089C2.47554 16.7433 2.79348 16.875 3.125 16.875H14.375C14.7065 16.875 15.0245 16.7433 15.2589 16.5089C15.4933 16.2745 15.625 15.9565 15.625 15.625V14.375H16.875C17.2065 14.375 17.5245 14.2433 17.7589 14.0089C17.9933 13.7745 18.125 13.4565 18.125 13.125V4.375C18.125 4.04348 17.9933 3.72554 17.7589 3.49112C17.5245 3.2567 17.2065 3.125 16.875 3.125ZM3.125 6.875H14.375V8.125H3.125V6.875ZM14.375 15.625H3.125V9.375H14.375V15.625ZM16.875 13.125H15.625V6.875C15.625 6.54348 15.4933 6.22554 15.2589 5.99112C15.0245 5.7567 14.7065 5.625 14.375 5.625H5.625V4.375H16.875V13.125Z" fill="#3A8DFF"/>
</svg>
