<svg width="143" height="22" viewBox="0 0 143 22" fill="none" xmlns="http://www.w3.org/2000/svg">
<g clip-path="url(#clip0_250_397)">
<path fill-rule="evenodd" clip-rule="evenodd" d="M19.5531 16.9705C20.923 15.1444 21.6611 12.9314 21.6581 10.6591C21.6581 4.78316 16.7961 0 10.8287 0C4.86128 0 0 4.78598 0 10.6591C0 16.5321 4.85556 21.3181 10.8287 21.3181C13.0887 21.3219 15.2926 20.6237 17.1285 19.3225L19.8455 21.9944L22.2558 19.6239L19.556 16.9648L19.5531 16.9705ZM17.1035 14.5591L13.0995 10.6195L10.6921 12.9935L14.6732 16.9112C13.5137 17.6053 12.1833 17.9716 10.8272 17.97C6.73244 17.97 3.40483 14.694 3.40483 10.6633C3.40483 6.63261 6.7353 3.35584 10.8301 3.35584C14.9249 3.35584 18.2497 6.63544 18.2497 10.6626C18.2512 12.0424 17.8544 13.394 17.1057 14.5591H17.1035Z" fill="white"/>
<path fill-rule="evenodd" clip-rule="evenodd" d="M119.392 0.528076V3.91709H112.951V20.8699H109.464V3.91709H103.025V0.528076H119.392Z" fill="white"/>
<path fill-rule="evenodd" clip-rule="evenodd" d="M65.5548 0.528076H61.3678L53.4062 20.8699H57.0613L58.5528 16.907H68.3719L69.862 20.8699H73.5185L65.5548 0.528076ZM59.8806 13.7361L63.4649 4.55381L67.0399 13.7361H59.8806Z" fill="white"/>
<path fill-rule="evenodd" clip-rule="evenodd" d="M143 3.91714L131.452 17.4351H143V20.87H126.904V17.2558L138.493 3.91714H127.708V0.562012H143V3.91714Z" fill="white"/>
<path fill-rule="evenodd" clip-rule="evenodd" d="M46.6532 0.528076V13.3966C46.6532 17.7597 43.0525 21.3076 38.6223 21.3076C34.1922 21.3076 30.5879 17.7583 30.5879 13.3966V0.528076H34.0728V13.3966C33.9963 15.9089 36.0712 17.9517 38.6238 17.9517C41.1763 17.9517 43.2455 15.9089 43.1955 13.3966V0.528076H46.6532Z" fill="white"/>
<path fill-rule="evenodd" clip-rule="evenodd" d="M91.6937 13.9804C92.8892 13.3991 93.8964 12.4996 94.6016 11.3832C95.3068 10.2669 95.682 8.97823 95.6848 7.66258C95.6848 3.93403 92.5632 0.603607 88.6778 0.528076H81.0273V20.8692H84.5137V14.7434H87.674L94.864 21.9154L97.2879 19.5577L91.6944 13.9811L91.6937 13.9804ZM88.4219 11.3869H84.5137V3.93827H88.4226C90.5483 3.93827 92.2786 5.60842 92.2786 7.66329C92.2786 9.71815 90.5483 11.3869 88.4226 11.3869H88.4219Z" fill="white"/>
</g>
<defs>
<clipPath id="clip0_250_397">
<rect width="143" height="22" fill="white"/>
</clipPath>
</defs>
</svg>
