<svg width="96" height="96" viewBox="0 0 96 96" fill="none" xmlns="http://www.w3.org/2000/svg">
<path opacity="0.2" d="M90 21V69C90 70.5913 89.3679 72.1174 88.2426 73.2426C87.1174 74.3679 85.5913 75 84 75H27V57H48V39H69V21H90Z" fill="white"/>
<path d="M93 21C93 21.7956 92.6839 22.5587 92.1213 23.1213C91.5587 23.6839 90.7956 24 90 24H72V39C72 39.7956 71.6839 40.5587 71.1213 41.1213C70.5587 41.6839 69.7956 42 69 42H51V57C51 57.7957 50.6839 58.5587 50.1213 59.1213C49.5587 59.6839 48.7957 60 48 60H30V75C30 75.7957 29.6839 76.5587 29.1213 77.1213C28.5587 77.6839 27.7956 78 27 78H6C5.20435 78 4.44129 77.6839 3.87868 77.1213C3.31607 76.5587 3 75.7957 3 75C3 74.2043 3.31607 73.4413 3.87868 72.8787C4.44129 72.3161 5.20435 72 6 72H24V57C24 56.2043 24.3161 55.4413 24.8787 54.8787C25.4413 54.3161 26.2044 54 27 54H45V39C45 38.2044 45.3161 37.4413 45.8787 36.8787C46.4413 36.3161 47.2043 36 48 36H66V21C66 20.2044 66.3161 19.4413 66.8787 18.8787C67.4413 18.3161 68.2044 18 69 18H90C90.7956 18 91.5587 18.3161 92.1213 18.8787C92.6839 19.4413 93 20.2044 93 21Z" fill="white"/>
</svg>
