<svg width="219" height="28" viewBox="0 0 219 28" fill="none" xmlns="http://www.w3.org/2000/svg">
<path d="M15.2393 0.038147C15.4559 0.038147 15.6365 0.191127 15.6807 0.394592C15.6888 0.405877 15.6989 0.416551 15.7061 0.428772L26.499 18.752L28.1836 21.5606C28.3283 21.8017 28.1543 22.1085 27.873 22.1085H13.8145C13.5348 22.1085 13.3603 21.8047 13.502 21.5635L15.2021 18.669C15.2671 18.5585 15.3864 18.4913 15.5146 18.4913H22.1465L14.0391 4.7276L3.95703 21.7881C3.87581 21.9254 3.72786 22.0095 3.56836 22.0098L0.454102 22.0167C0.103822 22.0174 -0.114261 21.6368 0.0634766 21.335L12.3789 0.428772C12.3848 0.41882 12.392 0.409784 12.3984 0.400452C12.4402 0.193875 12.6239 0.03821 12.8428 0.038147H15.2393Z" fill="white"/>
<path d="M52.7012 22.1074H31.4473C31.1974 22.1074 30.9941 21.9051 30.9941 21.6552V9.80756C30.9941 9.55769 31.1974 9.35541 31.4473 9.35541H48.6309C48.8807 9.35541 49.083 9.55769 49.083 9.80756V12.5205C49.083 12.7703 48.8807 12.9726 48.6309 12.9726H34.793V18.4902H52.7012V22.1074ZM51.8867 0.0390053C52.1365 0.0390053 52.3396 0.241454 52.3398 0.491154V3.20404C52.3398 3.45392 52.1366 3.65717 51.8867 3.65717H31.4473C31.1974 3.65717 30.9941 3.45392 30.9941 3.20404V0.491154C30.9943 0.241454 31.1975 0.0390053 31.4473 0.0390053H51.8867Z" fill="white"/>
<path fill-rule="evenodd" clip-rule="evenodd" d="M62.933 0.0390167H82.0489V3.65681H62.933C61.4688 3.75005 60.3101 4.94762 60.3101 6.43535C60.3101 7.98384 61.5654 9.23917 63.1139 9.23917L68.7215 9.26458C68.7215 9.26458 68.7667 9.26458 68.7769 9.2644H72.0677L72.2428 9.26684H72.2573C75.7698 9.36145 78.5793 12.1992 78.5793 15.686C78.5793 19.2325 75.6639 22.1076 72.0677 22.1076C71.9768 22.1076 71.8865 22.1058 71.7966 22.1022V22.1076H52.7012V18.4898H66.2077H71.7648C73.3132 18.4898 74.5685 17.2345 74.5685 15.686C74.5685 14.3026 73.5666 13.1568 72.2488 12.9274L63.2495 12.9726C63.1222 12.9801 62.9718 12.9726 62.8425 12.9726C62.7302 12.9726 62.6185 12.9698 62.5076 12.9642L62.4808 12.9643V12.9629C59.0525 12.7764 56.3305 9.95676 56.3305 6.50583C56.3305 2.93431 59.246 0.0390167 62.8425 0.0390167C62.8727 0.0390167 62.9029 0.0392208 62.933 0.0396277V0.0390167Z" fill="white"/>
<path d="M102.941 0.0390053C103.191 0.0390053 103.393 0.241422 103.394 0.491154V3.20404C103.394 3.45392 103.191 3.65717 102.941 3.65717H94.5303V21.6552C94.5303 21.905 94.3279 22.1073 94.0781 22.1074H91.3652C91.1154 22.1074 90.9121 21.9051 90.9121 21.6552V3.65717H82.0488V0.0390053H102.941Z" fill="white"/>
<path d="M109.771 21.6553C109.771 21.905 109.568 22.1075 109.318 22.1075H106.605C106.355 22.1075 106.152 21.905 106.152 21.6553V9.8976C106.152 9.64784 106.355 9.44537 106.605 9.44537H109.318C109.568 9.44537 109.771 9.64784 109.771 9.8976V21.6553ZM122.706 0.0391235C126.302 0.0392294 129.218 2.95452 129.218 6.55084C129.218 10.1472 126.302 13.0634 122.706 13.0635C122.579 13.0635 122.454 13.0599 122.329 13.0527C121.893 13.0275 121.555 13.5666 121.825 13.9096L127.691 21.3749C127.924 21.6716 127.713 22.1065 127.335 22.1065H123.844C123.705 22.1065 123.574 22.0428 123.488 21.9336L114.238 10.1559C114.004 9.85819 114.218 9.42217 114.596 9.42431L118.317 9.44537H122.254C123.852 9.44535 125.148 8.14923 125.148 6.55084C125.148 4.95253 123.852 3.65731 122.254 3.65729H106.605C106.355 3.65729 106.152 3.45482 106.152 3.20506V0.491349C106.152 0.241592 106.355 0.0391235 106.605 0.0391235H122.706Z" fill="white"/>
<g opacity="0.95">
<rect x="164.25" y="22.0011" width="22.001" height="3.58637" rx="0.452435" transform="rotate(-90 164.25 22.0011)" fill="white"/>
<path d="M153.413 6.86646e-05C153.586 6.86646e-05 153.734 0.0984208 153.811 0.24128C153.836 0.276056 153.86 0.313648 153.875 0.356514L161.011 20.2091C161.02 20.2344 161.026 20.2606 161.03 20.2862L161.438 21.4024C161.546 21.6976 161.328 22.0107 161.014 22.0108H158.157C157.966 22.0108 157.795 21.8895 157.73 21.7091L157.078 19.8721L156.084 17.1046H146.322L144.832 21.2491L144.673 21.7003C144.609 21.8804 144.438 22.0009 144.247 22.001H141.39C141.076 22.0007 140.857 21.6877 140.965 21.3926L141.391 20.2276C141.392 20.2218 141.393 20.2158 141.396 20.21L148.53 0.356514C148.593 0.181814 148.752 0.0689428 148.927 0.0576859C148.992 0.0216149 149.066 6.86646e-05 149.146 6.86646e-05H153.413ZM151.181 3.58601L147.611 13.5176H154.794L151.225 3.58601H151.181Z" fill="white"/>
<path d="M179.211 6.0644C181.804 6.0644 183.695 7.30597 184.315 7.9267C184.959 8.53612 186.246 10.3061 186.246 12.5126V15.7197C186.212 16.6163 185.778 18.7827 184.315 20.2724C182.853 21.7621 180.694 22.1337 179.211 22.1337C177.66 22.1337 175.435 21.7622 174.523 20.2753V27.5478C174.523 27.7975 174.321 27.9999 174.071 27.9999H171.39C171.14 27.9998 170.938 27.7974 170.938 27.5478V6.93451C170.938 6.68471 171.14 6.4815 171.39 6.48139H174.071C174.321 6.48139 174.523 6.68464 174.523 6.93451V8.19916C174.998 7.50825 176.622 6.06455 179.211 6.0644ZM178.418 9.23725C175.669 9.2374 174.678 11.8167 174.523 13.1201V15.704C174.566 17.0861 176.239 19.2371 178.418 19.2372C180.625 19.2372 182.073 18.0995 182.487 16.3408C182.818 14.9339 182.625 13.0189 182.487 12.2372C182.28 11.2372 181.177 9.23725 178.418 9.23725Z" fill="white"/>
<path d="M191.802 0.070755C192.052 0.070755 192.254 0.273079 192.254 0.522903V8.07076C192.76 7.41548 194.22 6.0361 196.736 6.10493C199.53 6.10493 202.53 7.69178 202.737 10.7954C202.772 11.3114 202.737 11.7264 202.737 13.1401V21.6196C202.737 21.8693 202.535 22.0717 202.285 22.0717H199.604C199.354 22.0716 199.152 21.8692 199.151 21.6196V12.3911C199.122 11.9525 199.065 11.6047 198.909 11.0708C198.702 10.3122 197.771 9.41548 195.84 9.41548C193.047 9.41562 192.254 12.0714 192.254 12.5542V21.6196C192.254 21.8693 192.051 22.0717 191.802 22.0717H189.12C188.871 22.0716 188.668 21.8692 188.668 21.6196V0.522903C188.668 0.273174 188.87 0.0709096 189.12 0.070755H191.802Z" fill="white"/>
<path d="M212.147 6.20887C218.399 6.20887 218.84 10.3721 218.869 11.5028C218.871 11.5207 218.875 11.539 218.875 11.5575V21.5497C218.875 21.7991 218.672 22.0018 218.423 22.0018H215.741C215.492 22.0017 215.29 21.799 215.289 21.5497V20.3593C214.742 21.1 212.904 22.1076 211.921 22.1395C211.024 22.2429 210.162 22.2085 208.921 22.1395C207.682 22.0706 206.542 21.1627 206.128 20.6913C205.051 19.2777 205.024 17.4496 205.3 16.1737C205.679 14.1739 207.576 13.2422 209.196 13.1386L215.289 13.037V11.7001C215.172 10.6222 214.722 9.03602 212.217 9.03602C210.4 9.03603 209.661 10.1329 209.42 10.8036C209.335 11.0387 209.119 11.243 208.869 11.243H206.202C205.961 11.2429 205.76 11.0539 205.778 10.8134C205.909 9.06663 207.302 6.20905 212.147 6.20887ZM210.954 15.3114C209.506 15.4494 208.988 15.9671 208.747 16.4843C208.667 16.7266 208.554 17.375 208.747 18.036C208.989 18.8632 209.887 19.4496 211.403 19.3807C212.919 19.3118 213.506 19.0015 213.816 18.829C214.069 18.6887 215.068 17.8712 215.289 17.1347V15.3114H210.954Z" fill="white"/>
</g>
</svg>
